<svg xmlns="http://www.w3.org/2000/svg" viewBox="0 0 512 512"><title>Mobile_Phone03</title><g id="Mobile_Phone_03" data-name="Mobile Phone 03"><g id="Mobile_Phone_03-2" data-name="Mobile Phone 03"><path d="M311.6182,139.6037H215.2693V89.9043H195.154v49.9944a32.5291,32.5291,0,0,0-28.2981,32.1926V389.5938a32.5336,32.5336,0,0,0,32.4971,32.5019H311.6087a32.5407,32.5407,0,0,0,32.5019-32.5019V172.1A32.5314,32.5314,0,0,0,311.6182,139.6037Zm12.3866,250a12.4,12.4,0,0,1-12.3866,12.3913H199.353a12.3985,12.3985,0,0,1-12.3817-12.3913V172.1a12.4014,12.4014,0,0,1,12.3817-12.39H311.6087A12.4035,12.4035,0,0,1,324,172.1V389.6034Z"/><path d="M197.67,321.721H311.6278V171.4592H197.67ZM217.7849,191.57h73.7276V301.6105H217.7849Z"/><rect x="201.5785" y="335.6876" width="28.4943" height="20.1096"/><rect x="240.4063" y="335.6876" width="28.4848" height="20.1096"/><rect x="279.2294" y="335.6876" width="28.4895" height="20.1096"/><rect x="201.5785" y="366.4161" width="28.4943" height="20.1106"/><rect x="240.4063" y="366.4161" width="28.4848" height="20.1106"/><rect x="279.2294" y="366.4161" width="28.4895" height="20.1106"/></g></g></svg>