<svg xmlns="http://www.w3.org/2000/svg" viewBox="0 0 32 32"><g id="galaxy"><path fill="#FFFFFF" d="M30,15C30,9.49,23.72,5,16,5a18.9,18.9,0,0,0-2.62.19A3,3,0,0,0,8,6.78a10.56,10.56,0,0,0-5.65,5.91A1,1,0,0,0,3,14a1.12,1.12,0,0,0,.31.05,1,1,0,0,0,.95-.69,8.51,8.51,0,0,1,4.3-4.57A3,3,0,0,0,14,7.13,16.68,16.68,0,0,1,16,7c6.62,0,12,3.59,12,8,0,2.29-1.49,4.45-4.08,6a3.49,3.49,0,0,0-5.86,1.89A17.53,17.53,0,0,1,16,23c-5.6,0-10.53-2.65-11.73-6.31a1,1,0,0,0-1.9.62C3.86,21.84,9.46,25,16,25a19,19,0,0,0,2.27-.15,3.49,3.49,0,0,0,6.63-2.14C28.14,20.81,30,18,30,15ZM11,8a1,1,0,1,1,1-1A1,1,0,0,1,11,8ZM21.5,25A1.5,1.5,0,1,1,23,23.5,1.5,1.5,0,0,1,21.5,25Z"/><path d="M19,18.84a1,1,0,0,0,1,.76,1,1,0,0,0,.24,0c2.48-.61,4.16-1.79,4.62-3.24A3,3,0,0,0,26,14a3,3,0,0,0-4.89-2.31,13.9,13.9,0,0,0-1.95-.48A16.47,16.47,0,0,0,16.5,11c-3,0-5.78.81-7.27,2.11A3,3,0,0,0,10,19a2.9,2.9,0,0,0,.79-.12l0,0a12.12,12.12,0,0,0,1.93.66A16,16,0,0,0,16.5,20a1,1,0,0,0,0-2,14.09,14.09,0,0,1-3.26-.37l-.63-.19A2.91,2.91,0,0,0,12,13.78,12.35,12.35,0,0,1,16.5,13a13.77,13.77,0,0,1,2.34.19,10.26,10.26,0,0,1,1.21.27A3.29,3.29,0,0,0,20,14a3,3,0,0,0,1.9,2.79,8.07,8.07,0,0,1-2.14.84A1,1,0,0,0,19,18.84ZM9,16a1,1,0,1,1,1,1A1,1,0,0,1,9,16Zm14-3a1,1,0,1,1-1,1A1,1,0,0,1,23,13Z"/><path d="M7,11H7a1,1,0,1,0,1,1A1,1,0,0,0,7,11Z"/><path d="M28,7a1,1,0,0,0,0-2h0a1,1,0,1,0,0,2Z"/><path d="M12,26h0a1,1,0,1,0,1,1A1,1,0,0,0,12,26Z"/></g></svg>